<mxfile host="app.diagrams.net" modified="2020-12-22T00:38:28.508Z" agent="5.0 (Windows NT 6.1; WOW64) AppleWebKit/537.36 (KHTML, like Gecko) Chrome/87.0.4280.88 Safari/537.36" etag="vGQK-ykkhXzGyhlbIFSl" version="14.0.3" type="github">
  <diagram id="E2YPs1XDWaf8-1GBhOvZ" name="第 1 页">
    <mxGraphModel dx="782" dy="439" grid="1" gridSize="10" guides="1" tooltips="1" connect="1" arrows="1" fold="1" page="1" pageScale="1" pageWidth="827" pageHeight="1169" math="0" shadow="0">
      <root>
        <mxCell id="0" />
        <mxCell id="1" parent="0" />
        <mxCell id="DkUu35iDDZaPHqgWe5xr-5" value="" style="edgeStyle=orthogonalEdgeStyle;rounded=0;orthogonalLoop=1;jettySize=auto;html=1;entryX=0.548;entryY=0;entryDx=0;entryDy=0;entryPerimeter=0;" edge="1" parent="1" target="DkUu35iDDZaPHqgWe5xr-17">
          <mxGeometry relative="1" as="geometry">
            <mxPoint x="413" y="280" as="sourcePoint" />
            <mxPoint x="413" y="380" as="targetPoint" />
            <Array as="points">
              <mxPoint x="413" y="320" />
              <mxPoint x="413" y="320" />
            </Array>
          </mxGeometry>
        </mxCell>
        <mxCell id="DkUu35iDDZaPHqgWe5xr-11" value="bank-product-core&#xa;产品核心交易平台" style="swimlane;childLayout=stackLayout;horizontal=1;startSize=60;horizontalStack=0;rounded=1;fontSize=14;fontStyle=0;strokeWidth=2;resizeParent=0;resizeLast=1;shadow=0;dashed=0;align=center;" vertex="1" parent="1">
          <mxGeometry x="281.5" y="40" width="240" height="240" as="geometry" />
        </mxCell>
        <mxCell id="DkUu35iDDZaPHqgWe5xr-17" value="bank-product-forward&#xa;产品前置平台" style="swimlane;childLayout=stackLayout;horizontal=1;startSize=60;horizontalStack=0;rounded=1;fontSize=14;fontStyle=0;strokeWidth=2;resizeParent=0;resizeLast=1;shadow=0;dashed=0;align=center;" vertex="1" parent="1">
          <mxGeometry x="281.5" y="390" width="240" height="240" as="geometry" />
        </mxCell>
        <mxCell id="DkUu35iDDZaPHqgWe5xr-18" value="bank-agreement&#xa;协议平台" style="swimlane;childLayout=stackLayout;horizontal=1;startSize=60;horizontalStack=0;rounded=1;fontSize=14;fontStyle=0;strokeWidth=2;resizeParent=0;resizeLast=1;shadow=0;dashed=0;align=center;" vertex="1" parent="1">
          <mxGeometry x="281.5" y="760" width="240" height="240" as="geometry" />
        </mxCell>
        <mxCell id="DkUu35iDDZaPHqgWe5xr-19" value="" style="edgeStyle=orthogonalEdgeStyle;rounded=0;orthogonalLoop=1;jettySize=auto;html=1;exitX=0.5;exitY=1;exitDx=0;exitDy=0;" edge="1" parent="1" source="DkUu35iDDZaPHqgWe5xr-17">
          <mxGeometry relative="1" as="geometry">
            <mxPoint x="401" y="640" as="sourcePoint" />
            <mxPoint x="401" y="760" as="targetPoint" />
          </mxGeometry>
        </mxCell>
      </root>
    </mxGraphModel>
  </diagram>
</mxfile>
